<?xml version="1.0" encoding="UTF-8" standalone="no"?>
<!DOCTYPE svg PUBLIC "-//W3C//DTD SVG 1.1//EN" "http://www.w3.org/Graphics/SVG/1.1/DTD/svg11.dtd">
<svg width="100%" height="100%" viewBox="0 0 388 300" version="1.1" xmlns="http://www.w3.org/2000/svg" xmlns:xlink="http://www.w3.org/1999/xlink" xml:space="preserve" xmlns:serif="http://www.serif.com/" style="fill-rule:evenodd;clip-rule:evenodd;stroke-linejoin:round;stroke-miterlimit:2;">
    <g id="_-0093ddff" serif:id="#0093ddff" transform="matrix(0.280374,0,0,0.280374,0,0)">
        <path d="M268.54,0L452.7,0C458.67,1.27 463.72,6.05 465.05,12.04C466.56,17.59 464.6,23.18 463.41,28.58C452.39,76.05 441.24,123.49 430.3,170.98C429.06,171.67 427.82,172.35 426.55,172.98L425.79,173.31C425.63,173.38 425.31,173.52 425.16,173.59C422.96,174.55 420.78,175.52 418.59,176.49C418.23,176.66 417.51,177.01 417.14,177.19L416.69,177.39C416.61,177.43 416.45,177.5 416.37,177.53C414.1,178.48 411.83,179.43 409.6,180.47C409.54,180.5 409.41,180.56 409.35,180.59L407.65,181.38C407.58,181.42 407.42,181.5 407.34,181.53L405.57,182.37C405.21,182.57 404.49,182.96 404.13,183.16L403.67,183.37C403.6,183.41 403.44,183.48 403.37,183.51C400.41,184.75 397.53,186.12 394.63,187.46C394.55,187.5 394.39,187.57 394.31,187.61L393.87,187.83C393.5,188.01 392.77,188.37 392.41,188.55L390.6,189.39C390.52,189.42 390.37,189.5 390.29,189.53L388.58,190.34C388.5,190.38 388.33,190.46 388.24,190.5L386.59,191.29C386.51,191.33 386.36,191.4 386.28,191.44L384.6,192.23C384.52,192.27 384.35,192.35 384.26,192.39L383.06,192.94C382.54,193.21 381.49,193.76 380.96,194.03C379.91,194.48 378.87,194.94 377.84,195.42C377.69,195.5 377.38,195.64 377.23,195.72C376.03,196.29 374.83,196.87 373.64,197.46C373.57,197.49 373.45,197.55 373.38,197.59C371.49,198.61 369.57,199.56 367.63,200.47C367.55,200.51 367.4,200.59 367.33,200.62L366.89,200.85C366.54,201.04 365.85,201.43 365.51,201.63C363.07,202.81 360.66,204.04 358.24,205.23C356.95,205.35 355.52,205.71 354.93,207C350.68,208.96 346.55,211.17 342.42,213.37C342.08,213.55 341.41,213.93 341.08,214.12L340.67,214.37C340.58,214.43 340.39,214.54 340.3,214.59L339.88,214.84C339.51,215.01 338.78,215.34 338.41,215.5L336.66,216.42C336.59,216.46 336.43,216.54 336.35,216.59L334.74,217.45C334.67,217.49 334.54,217.56 334.47,217.6C330.92,219.51 327.37,221.4 323.82,223.31C323.66,223.39 323.35,223.56 323.19,223.64C318.45,226.13 313.82,228.8 309.14,231.38C302.29,234.98 295.62,238.92 289.03,242.94C295.85,240.17 302.34,236.61 308.84,233.16C315.95,229.49 323.21,226.12 330.4,222.6C330.46,222.56 330.6,222.5 330.67,222.46L332.37,221.63C332.46,221.59 332.64,221.51 332.73,221.46L334.42,220.65C334.49,220.61 334.65,220.54 334.73,220.5L336.39,219.71C336.46,219.68 336.6,219.61 336.67,219.58C340.17,217.94 343.7,216.35 347.2,214.71C347.36,214.64 347.67,214.49 347.82,214.42C351.34,212.8 354.86,211.17 358.39,209.56C358.46,209.53 358.59,209.47 358.66,209.44L360.35,208.68C360.43,208.64 360.59,208.57 360.67,208.54L361.92,207.99C362.46,207.73 363.53,207.22 364.06,206.97C365.15,206.53 366.22,206.08 367.3,205.62C367.4,205.57 367.6,205.48 367.7,205.44C368.78,204.96 369.87,204.48 370.96,204.02C371.48,203.76 372.52,203.25 373.04,203C376.58,201.65 379.99,199.99 383.49,198.53C383.83,198.35 384.53,197.98 384.88,197.8L385.33,197.62C385.4,197.58 385.56,197.52 385.64,197.49C386.29,197.24 387.59,196.75 388.24,196.5C388.33,196.47 388.5,196.4 388.59,196.36C389.7,195.9 390.82,195.43 391.94,194.96C392.48,194.72 393.54,194.23 394.07,193.99C395.73,193.38 397.36,192.71 399,192.04C399.53,191.79 400.6,191.28 401.14,191.03L402.36,190.61C402.43,190.58 402.57,190.53 402.65,190.51L403.89,190.05C404.43,189.77 405.49,189.22 406.02,188.94L407.44,188.55C407.8,188.38 408.52,188.03 408.89,187.86L409.33,187.63C409.42,187.58 409.59,187.49 409.68,187.44L410.04,187.25C410.81,186.98 412.35,186.44 413.12,186.17L414.38,185.71C414.45,185.68 414.61,185.62 414.69,185.59L415.99,185.13C416.5,184.85 417.53,184.31 418.05,184.03L418.94,184.07C419.45,183.8 420.48,183.26 420.99,182.99C421.96,182.67 422.93,182.34 423.91,182.02C424.45,181.76 425.52,181.25 426.05,180.99L427.65,180.43C427.74,181.29 427.68,182.14 427.48,182.98C418.9,219.6 410.4,256.25 401.86,292.88C401.48,296.95 400.32,300.88 399.5,304.88C398.27,310.8 399.78,317.53 404.38,321.67C407.99,325.1 413.12,326.24 417.97,326.12C487.98,326.11 557.99,326.13 628.01,326.11C632.16,326.12 636.52,325.88 640.42,327.6C645.47,329.67 649.14,334.52 649.98,339.9C651.09,346.05 648.54,352.01 647.42,357.97C624.44,456.64 601.47,555.31 578.48,653.98C576.29,664.53 567.87,673.43 557.52,676.34C552.78,677.66 547.81,677.22 542.95,677.29C452.48,677.32 362.02,677.23 271.56,677.34C271.3,674.35 271.45,671.35 271.42,668.36C296.28,662.8 321.23,654.42 341.56,638.6C357.92,626.1 370.17,608.19 375.28,588.2C392.02,516.17 408.84,444.15 425.58,372.12C427.2,365.27 424.77,357.25 418.6,353.46C414,350.4 408.28,350.64 402.99,350.69C352.68,350.69 302.36,350.71 252.05,350.69C250.42,350.8 248.68,350.37 247.14,350.97C218.52,375.64 191.32,402.03 166.76,430.77C142.32,459.05 120.47,489.71 103.05,522.82C82.65,561.72 68.42,604.77 67.88,649.01C67.08,691.24 80.52,733.54 105.68,767.48C128.28,798.38 159.11,822.45 192.5,840.75C228.62,860.29 267.74,873.94 307.7,883.18C307.61,883.95 307.44,885.47 307.36,886.24C303.67,901.39 300.26,916.6 296.69,931.78C270.46,928.24 244.49,922.78 218.95,915.87C183.45,906.01 148.7,892.78 116.8,874.21C84.15,855.26 54.34,830.33 33.23,798.78C9.12,763.35 -2.13,719.69 0.97,677.01C3.73,633.84 19,592.37 39.77,554.74C59.03,519.99 83.07,488.06 109.61,458.55C145.49,418.59 186.12,383.14 228.85,350.71C216.32,350.64 203.78,350.77 191.25,350.65C185.13,350.64 178.95,347.3 176.28,341.68C173.78,336.84 174.15,331.14 175.59,326.05C199.21,224.73 222.77,123.38 246.41,22.06C248.88,11.29 257.92,2.67 268.54,0Z" style="fill:rgb(0,147,221);fill-rule:nonzero;"/>
        <path d="M1171.91,697.88C1177.26,694.71 1182.2,690.76 1187.85,688.12C1170.32,701.42 1151.85,713.48 1133.4,725.47C1034.34,788.59 926.47,837.33 814.86,873.6C717.32,905.1 616.48,926.94 514.32,936.07C514.45,935.27 514.71,933.68 514.83,932.89C517.4,922.46 519.72,911.98 522.2,901.54C580.36,899.19 638.32,892.45 695.54,881.75C783.15,865.4 869.07,840.32 952.08,807.92C1028.46,777.95 1102.4,741.54 1171.91,697.88Z" style="fill:rgb(0,147,221);fill-rule:nonzero;"/>
    </g>
    <g id="_-eb891bff" serif:id="#eb891bff" transform="matrix(0.280374,0,0,0.280374,0,0)">
        <path d="M785.57,0L1068.06,0C1068.03,2.86 1068.18,5.72 1067.89,8.57C1052.11,12.04 1036.56,16.91 1022.04,24.06C1007.64,30.98 994.41,40.67 984.26,53.08C1042.25,54.51 1100.35,60.87 1156.55,75.57C1198.24,86.6 1239.07,102.22 1275.62,125.35C1307.51,145.5 1336.08,171.95 1355.17,204.74C1369.87,229.54 1378.43,257.73 1381,286.4L1381,317.74C1378.07,357.09 1365.07,395.1 1346.9,429.93C1328.04,466.12 1303.75,499.24 1276.88,529.86C1226.12,587.23 1166.19,635.89 1102.6,678.34C1101.2,679.28 1099.83,680.32 1098.15,680.63C1098.53,679.94 1099.05,679.36 1099.69,678.9C1145.37,644.44 1188.35,606.14 1225.97,562.95C1252.5,532.29 1276.41,499.14 1294.91,462.99C1313.46,426.69 1326.55,386.97 1328.32,346.02C1329.49,319.2 1325.54,292.06 1315.89,266.97C1302.85,232.1 1279.21,201.84 1250.56,178.36C1219.9,153.05 1184,134.8 1146.82,121.16C1089.15,100.3 1028.11,90.18 967.08,86.03C954.61,139.52 942.17,193.02 929.7,246.52C925.14,266.62 919.99,286.61 916.26,306.87C915.44,313.39 918.36,320.49 924.26,323.74C928.68,326.41 934.02,326.14 939,326.12C1008.99,326.11 1078.98,326.11 1148.97,326.12C1153.98,325.99 1159.27,327.48 1162.76,331.25C1167.3,335.9 1168.19,343.08 1166.52,349.16C1143.08,449.83 1119.63,550.5 1096.19,651.17C1094.33,665.35 1081.61,677.67 1067.01,677.29C1009.35,677.29 951.7,677.31 894.05,677.28C888.96,677.37 883.64,675.61 880.26,671.67C876.19,667.14 875.35,660.51 876.8,654.77C898.74,560.56 920.7,466.36 942.63,372.15C944.25,365.28 941.81,357.23 935.61,353.44C930.71,350.19 924.62,350.7 919.04,350.7C849.36,350.7 779.68,350.7 710,350.69C705.01,350.83 699.76,349.43 696.23,345.74C691.65,341.22 690.58,334.15 692.16,328.1C710.19,250.66 728.25,173.23 746.26,95.78C637.24,111.45 530.22,140.39 427.65,180.43L426.05,180.99C425.52,181.25 424.45,181.76 423.91,182.02C422.93,182.34 421.96,182.67 420.99,182.99L420.11,182.8C419.81,183.12 419.23,183.75 418.94,184.07L418.05,184.03C417.53,184.31 416.5,184.85 415.99,185.13L414.69,185.59C414.61,185.62 414.45,185.68 414.38,185.71L413.12,186.17C412.35,186.44 410.81,186.98 410.04,187.25L409.68,187.44C409.59,187.49 409.42,187.58 409.33,187.63L408.89,187.86C408.52,188.03 407.8,188.38 407.44,188.55L406.02,188.94C405.49,189.22 404.43,189.77 403.89,190.05L402.65,190.51C402.57,190.53 402.43,190.58 402.36,190.61L401.14,191.03C400.6,191.28 399.53,191.79 399,192.04C397.36,192.71 395.73,193.38 394.07,193.99L393.2,193.77C392.89,194.06 392.26,194.66 391.94,194.96C390.82,195.43 389.7,195.9 388.59,196.36C388.5,196.4 388.33,196.47 388.24,196.5C387.59,196.75 386.29,197.24 385.64,197.49C385.56,197.52 385.4,197.58 385.33,197.62L384.88,197.8C384.53,197.98 383.83,198.35 383.49,198.53C379.99,199.99 376.58,201.65 373.04,203L372.17,202.8C371.86,203.1 371.26,203.71 370.96,204.02C369.87,204.48 368.78,204.96 367.7,205.44C367.6,205.48 367.4,205.57 367.3,205.62C366.22,206.08 365.15,206.53 364.06,206.97L363.19,206.77C362.87,207.07 362.24,207.68 361.92,207.99L360.67,208.54C360.59,208.57 360.43,208.64 360.35,208.68L358.66,209.44C358.59,209.47 358.46,209.53 358.39,209.56C354.86,211.17 351.34,212.8 347.82,214.42C347.67,214.49 347.36,214.64 347.2,214.71C343.7,216.35 340.17,217.94 336.67,219.58C336.6,219.61 336.46,219.68 336.39,219.71L334.73,220.5C334.65,220.54 334.49,220.61 334.42,220.65L332.73,221.46C332.64,221.51 332.46,221.59 332.37,221.63L330.67,222.46C330.6,222.5 330.46,222.56 330.4,222.6C323.21,226.12 315.95,229.49 308.84,233.16L307.28,233.23C307.74,232.77 308.67,231.85 309.14,231.38C313.82,228.8 318.45,226.13 323.19,223.64C323.35,223.56 323.66,223.39 323.82,223.31C327.37,221.4 330.92,219.51 334.47,217.6C334.54,217.56 334.67,217.49 334.74,217.45L336.35,216.59C336.43,216.54 336.59,216.46 336.66,216.42L338.41,215.5C338.78,215.34 339.51,215.01 339.88,214.84L340.3,214.59C340.39,214.54 340.58,214.43 340.67,214.37L341.08,214.12C341.41,213.93 342.08,213.55 342.42,213.37C346.55,211.17 350.68,208.96 354.93,207C356.43,208.08 357.93,206.73 358.24,205.23C360.66,204.04 363.07,202.81 365.51,201.63C365.85,201.43 366.54,201.04 366.89,200.85L367.33,200.62C367.4,200.59 367.55,200.51 367.63,200.47C369.57,199.56 371.49,198.61 373.38,197.59C373.45,197.55 373.57,197.49 373.64,197.46C374.83,196.87 376.03,196.29 377.23,195.72C377.38,195.64 377.69,195.5 377.84,195.42C378.87,194.94 379.91,194.48 380.96,194.03L381.84,194.2C382.15,193.88 382.76,193.26 383.06,192.94L384.26,192.39C384.35,192.35 384.52,192.27 384.6,192.23L386.28,191.44C386.36,191.4 386.51,191.33 386.59,191.29L388.24,190.5C388.33,190.46 388.5,190.38 388.58,190.34L390.29,189.53C390.37,189.5 390.52,189.42 390.6,189.39L392.41,188.55C392.77,188.37 393.5,188.01 393.87,187.83L394.31,187.61C394.39,187.57 394.55,187.5 394.63,187.46C397.53,186.12 400.41,184.75 403.37,183.51C403.44,183.48 403.6,183.41 403.67,183.37L404.13,183.16C404.49,182.96 405.21,182.57 405.57,182.37L407.34,181.53C407.42,181.5 407.58,181.42 407.65,181.38L409.35,180.59C409.41,180.56 409.54,180.5 409.6,180.47C411.83,179.43 414.1,178.48 416.37,177.53C416.45,177.5 416.61,177.43 416.69,177.39L417.14,177.19C417.51,177.01 418.23,176.66 418.59,176.49C420.78,175.52 422.96,174.55 425.16,173.59C425.31,173.52 425.63,173.38 425.79,173.31L426.55,172.98C530.65,127.43 639.84,93.36 751.63,72.8C755.57,55.88 759.49,38.96 763.46,22.05C765.93,11.29 774.96,2.68 785.57,0Z" style="fill:rgb(235,137,27);fill-rule:nonzero;"/>
    </g>
    <g id="_-68b92eff" serif:id="#68b92eff" transform="matrix(0.280374,0,0,0.280374,0,0)">
        <path d="M425.16,173.59C425.31,173.52 425.63,173.38 425.79,173.31C425.63,173.38 425.31,173.52 425.16,173.59Z" style="fill:rgb(104,185,46);fill-rule:nonzero;"/>
        <path d="M417.14,177.19C417.51,177.01 418.23,176.66 418.59,176.49C418.23,176.66 417.51,177.01 417.14,177.19Z" style="fill:rgb(104,185,46);fill-rule:nonzero;"/>
        <path d="M416.37,177.53C416.45,177.5 416.61,177.43 416.69,177.39C416.61,177.43 416.45,177.5 416.37,177.53Z" style="fill:rgb(104,185,46);fill-rule:nonzero;"/>
        <path d="M409.35,180.59C409.41,180.56 409.54,180.5 409.6,180.47C409.54,180.5 409.41,180.56 409.35,180.59Z" style="fill:rgb(104,185,46);fill-rule:nonzero;"/>
        <path d="M407.34,181.53C407.42,181.5 407.58,181.42 407.65,181.38C407.58,181.42 407.42,181.5 407.34,181.53Z" style="fill:rgb(104,185,46);fill-rule:nonzero;"/>
        <path d="M423.91,182.02C424.45,181.76 425.52,181.25 426.05,180.99C425.52,181.25 424.45,181.76 423.91,182.02Z" style="fill:rgb(104,185,46);fill-rule:nonzero;"/>
        <path d="M404.13,183.16C404.49,182.96 405.21,182.57 405.57,182.37C405.21,182.57 404.49,182.96 404.13,183.16Z" style="fill:rgb(104,185,46);fill-rule:nonzero;"/>
        <path d="M403.37,183.51C403.44,183.48 403.6,183.41 403.67,183.37C403.6,183.41 403.44,183.48 403.37,183.51Z" style="fill:rgb(104,185,46);fill-rule:nonzero;"/>
        <path d="M418.94,184.07C419.23,183.75 419.81,183.12 420.11,182.8L420.99,182.99C420.48,183.26 419.45,183.8 418.94,184.07Z" style="fill:rgb(104,185,46);fill-rule:nonzero;"/>
        <path d="M415.99,185.13C416.5,184.85 417.53,184.31 418.05,184.03C417.53,184.31 416.5,184.85 415.99,185.13Z" style="fill:rgb(104,185,46);fill-rule:nonzero;"/>
        <path d="M414.38,185.71C414.45,185.68 414.61,185.62 414.69,185.59C414.61,185.62 414.45,185.68 414.38,185.71Z" style="fill:rgb(104,185,46);fill-rule:nonzero;"/>
        <path d="M410.04,187.25C410.81,186.98 412.35,186.44 413.12,186.17C412.35,186.44 410.81,186.98 410.04,187.25Z" style="fill:rgb(104,185,46);fill-rule:nonzero;"/>
        <path d="M394.31,187.61C394.39,187.57 394.55,187.5 394.63,187.46C394.55,187.5 394.39,187.57 394.31,187.61Z" style="fill:rgb(104,185,46);fill-rule:nonzero;"/>
        <path d="M409.33,187.63C409.42,187.58 409.59,187.49 409.68,187.44C409.59,187.49 409.42,187.58 409.33,187.63Z" style="fill:rgb(104,185,46);fill-rule:nonzero;"/>
        <path d="M392.41,188.55C392.77,188.37 393.5,188.01 393.87,187.83C393.5,188.01 392.77,188.37 392.41,188.55Z" style="fill:rgb(104,185,46);fill-rule:nonzero;"/>
        <path d="M407.44,188.55C407.8,188.38 408.52,188.03 408.89,187.86C408.52,188.03 407.8,188.38 407.44,188.55Z" style="fill:rgb(104,185,46);fill-rule:nonzero;"/>
        <path d="M390.29,189.53C390.37,189.5 390.52,189.42 390.6,189.39C390.52,189.42 390.37,189.5 390.29,189.53Z" style="fill:rgb(104,185,46);fill-rule:nonzero;"/>
        <path d="M403.89,190.05C404.43,189.77 405.49,189.22 406.02,188.94C405.49,189.22 404.43,189.77 403.89,190.05Z" style="fill:rgb(104,185,46);fill-rule:nonzero;"/>
        <path d="M388.24,190.5C388.33,190.46 388.5,190.38 388.58,190.34C388.5,190.38 388.33,190.46 388.24,190.5Z" style="fill:rgb(104,185,46);fill-rule:nonzero;"/>
        <path d="M402.36,190.61C402.43,190.58 402.57,190.53 402.65,190.51C402.57,190.53 402.43,190.58 402.36,190.61Z" style="fill:rgb(104,185,46);fill-rule:nonzero;"/>
        <path d="M386.28,191.44C386.36,191.4 386.51,191.33 386.59,191.29C386.51,191.33 386.36,191.4 386.28,191.44Z" style="fill:rgb(104,185,46);fill-rule:nonzero;"/>
        <path d="M399,192.04C399.53,191.79 400.6,191.28 401.14,191.03C400.6,191.28 399.53,191.79 399,192.04Z" style="fill:rgb(104,185,46);fill-rule:nonzero;"/>
        <path d="M384.26,192.39C384.35,192.35 384.52,192.27 384.6,192.23C384.52,192.27 384.35,192.35 384.26,192.39Z" style="fill:rgb(104,185,46);fill-rule:nonzero;"/>
        <path d="M380.96,194.03C381.49,193.76 382.54,193.21 383.06,192.94C382.76,193.26 382.15,193.88 381.84,194.2L380.96,194.03Z" style="fill:rgb(104,185,46);fill-rule:nonzero;"/>
        <path d="M391.94,194.96C392.26,194.66 392.89,194.06 393.2,193.77L394.07,193.99C393.54,194.23 392.48,194.72 391.94,194.96Z" style="fill:rgb(104,185,46);fill-rule:nonzero;"/>
        <path d="M377.23,195.72C377.38,195.64 377.69,195.5 377.84,195.42C377.69,195.5 377.38,195.64 377.23,195.72Z" style="fill:rgb(104,185,46);fill-rule:nonzero;"/>
        <path d="M388.24,196.5C388.33,196.47 388.5,196.4 388.59,196.36C388.5,196.4 388.33,196.47 388.24,196.5Z" style="fill:rgb(104,185,46);fill-rule:nonzero;"/>
        <path d="M373.38,197.59C373.45,197.55 373.57,197.49 373.64,197.46C373.57,197.49 373.45,197.55 373.38,197.59Z" style="fill:rgb(104,185,46);fill-rule:nonzero;"/>
        <path d="M385.33,197.62C385.4,197.58 385.56,197.52 385.64,197.49C385.56,197.52 385.4,197.58 385.33,197.62Z" style="fill:rgb(104,185,46);fill-rule:nonzero;"/>
        <path d="M383.49,198.53C383.83,198.35 384.53,197.98 384.88,197.8C384.53,197.98 383.83,198.35 383.49,198.53Z" style="fill:rgb(104,185,46);fill-rule:nonzero;"/>
        <path d="M367.33,200.62C367.4,200.59 367.55,200.51 367.63,200.47C367.55,200.51 367.4,200.59 367.33,200.62Z" style="fill:rgb(104,185,46);fill-rule:nonzero;"/>
        <path d="M365.51,201.63C365.85,201.43 366.54,201.04 366.89,200.85C366.54,201.04 365.85,201.43 365.51,201.63Z" style="fill:rgb(104,185,46);fill-rule:nonzero;"/>
        <path d="M370.96,204.02C371.26,203.71 371.86,203.1 372.17,202.8L373.04,203C372.52,203.25 371.48,203.76 370.96,204.02Z" style="fill:rgb(104,185,46);fill-rule:nonzero;"/>
        <path d="M354.93,207C355.52,205.71 356.95,205.35 358.24,205.23C357.93,206.73 356.43,208.08 354.93,207Z" style="fill:rgb(104,185,46);fill-rule:nonzero;"/>
        <path d="M367.3,205.62C367.4,205.57 367.6,205.48 367.7,205.44C367.6,205.48 367.4,205.57 367.3,205.62Z" style="fill:rgb(104,185,46);fill-rule:nonzero;"/>
        <path d="M361.92,207.99C362.24,207.68 362.87,207.07 363.19,206.77L364.06,206.97C363.53,207.22 362.46,207.73 361.92,207.99Z" style="fill:rgb(104,185,46);fill-rule:nonzero;"/>
        <path d="M360.35,208.68C360.43,208.64 360.59,208.57 360.67,208.54C360.59,208.57 360.43,208.64 360.35,208.68Z" style="fill:rgb(104,185,46);fill-rule:nonzero;"/>
        <path d="M358.39,209.56C358.46,209.53 358.59,209.47 358.66,209.44C358.59,209.47 358.46,209.53 358.39,209.56Z" style="fill:rgb(104,185,46);fill-rule:nonzero;"/>
        <path d="M341.08,214.12C341.41,213.93 342.08,213.55 342.42,213.37C342.08,213.55 341.41,213.93 341.08,214.12Z" style="fill:rgb(104,185,46);fill-rule:nonzero;"/>
        <path d="M340.3,214.59C340.39,214.54 340.58,214.43 340.67,214.37C340.58,214.43 340.39,214.54 340.3,214.59Z" style="fill:rgb(104,185,46);fill-rule:nonzero;"/>
        <path d="M347.2,214.71C347.36,214.64 347.67,214.49 347.82,214.42C347.67,214.49 347.36,214.64 347.2,214.71Z" style="fill:rgb(104,185,46);fill-rule:nonzero;"/>
        <path d="M338.41,215.5C338.78,215.34 339.51,215.01 339.88,214.84C339.51,215.01 338.78,215.34 338.41,215.5Z" style="fill:rgb(104,185,46);fill-rule:nonzero;"/>
        <path d="M336.35,216.59C336.43,216.54 336.59,216.46 336.66,216.42C336.59,216.46 336.43,216.54 336.35,216.59Z" style="fill:rgb(104,185,46);fill-rule:nonzero;"/>
        <path d="M334.47,217.6C334.54,217.56 334.67,217.49 334.74,217.45C334.67,217.49 334.54,217.56 334.47,217.6Z" style="fill:rgb(104,185,46);fill-rule:nonzero;"/>
        <path d="M336.39,219.71C336.46,219.68 336.6,219.61 336.67,219.58C336.6,219.61 336.46,219.68 336.39,219.71Z" style="fill:rgb(104,185,46);fill-rule:nonzero;"/>
        <path d="M334.42,220.65C334.49,220.61 334.65,220.54 334.73,220.5C334.65,220.54 334.49,220.61 334.42,220.65Z" style="fill:rgb(104,185,46);fill-rule:nonzero;"/>
        <path d="M332.37,221.63C332.46,221.59 332.64,221.51 332.73,221.46C332.64,221.51 332.46,221.59 332.37,221.63Z" style="fill:rgb(104,185,46);fill-rule:nonzero;"/>
        <path d="M330.4,222.6C330.46,222.56 330.6,222.5 330.67,222.46C330.6,222.5 330.46,222.56 330.4,222.6Z" style="fill:rgb(104,185,46);fill-rule:nonzero;"/>
        <path d="M323.19,223.64C323.35,223.56 323.66,223.39 323.82,223.31C323.66,223.39 323.35,223.56 323.19,223.64Z" style="fill:rgb(104,185,46);fill-rule:nonzero;"/>
        <path d="M289.03,242.94C295.62,238.92 302.29,234.98 309.14,231.38C308.67,231.85 307.74,232.77 307.28,233.23L308.84,233.16C302.34,236.61 295.85,240.17 289.03,242.94Z" style="fill:rgb(104,185,46);fill-rule:nonzero;"/>
        <path d="M675.58,414.96C678.25,401.99 690.58,391.45 703.97,391.71C761.62,391.71 819.26,391.7 876.91,391.72C882.95,391.5 889.29,394.18 892.44,399.51C895.3,404.12 895.46,409.9 894.11,415.03C870.41,516.67 846.77,618.33 823.07,719.97C820.29,732.71 808.17,743.05 794.98,742.89C726.64,742.91 658.3,742.89 589.96,742.9C584.1,742.98 578,742.35 572.43,744.58C563.55,747.98 556.29,755.73 554.03,765.04C543.39,810.53 532.87,856.05 522.2,901.54C519.72,911.98 517.4,922.46 514.83,932.89C506.41,970.02 497.58,1007.08 489.02,1044.19C486.97,1057.7 474.89,1069.35 460.99,1069.47C403.02,1069.53 345.05,1069.49 287.08,1069.49C281.97,1069.58 276.63,1067.8 273.25,1063.83C269.19,1059.28 268.37,1052.63 269.85,1046.88C278.8,1008.51 287.67,970.13 296.69,931.78C300.26,916.6 303.67,901.39 307.36,886.24C318.34,838.07 329.74,790 340.88,741.87C343.45,728.93 355.54,718.27 368.89,718.32C439.92,718.28 510.96,718.32 581.99,718.3C592.35,718.5 602.13,712.15 607.19,703.29C609.5,699.38 610.39,694.87 611.4,690.5C632.8,598.66 654.18,506.81 675.58,414.96Z" style="fill:rgb(104,185,46);fill-rule:nonzero;"/>
    </g>
</svg>
